<svg width="193mm" height="127mm" version="1.1" viewBox="0 0 193 127" xmlns="http://www.w3.org/2000/svg">
<g transform="translate(1.538 -6.319)"><rect x="-2" y="6" width="193" height="127" fill="#fff"/><path d="m189.8 67c0 0-5.2 2-5.2 2 1-1 1-2.2 0-3.4 0 0 5.3 2 5.2 2"/><path d="m2.2 67c4-14.2 8-30 12.7-43.2 5.1-14.3 8.9-18.4 12.7-12.7 4.2 6.2 8.1 12.2 12.7 17.8 4.5 5.5 8.6 7.3 12.7 5.4l12.7-6c4-1.9 8-3.5 12.7-2.4 6.5 1.5 10.1 6.5 12.7 11.7 0 0 9 16.7 12.7 25.3 4.9 11.2 9.5 25.2 12.7 34.3 3.7 10.3 7.8 19 12.7 25.8 3.5 4.9 7.5 7.6 12.7 6.4 2.3-.5 9.3-9 12.7-14.4 5.7-8.9 12.2-27.8 12.7-28.9 2.8-6.6 8.2-19 8.2-19" fill="#fcdb2f" stroke="#008000" stroke-width=".5"/><path d="m167.6 67v19m-12.7-19v47.9m-12.7-47.9v62.3m-12.7-62.3v55.9m-12.7-55.9v30.1m-12.7-34.3v4.2m-12.7-29.5v29.5m-12.7-41.2v41.2m-12.7-38.8v38.8m-12.7-32.7v32.7m-12.7-38.1v38.1m-12.7-55.9v55.9m-12.7-43.2v43.2" stroke="#00f" stroke-width=".5"/><path d="m2.2 67h184.8" stroke="#000" stroke-width=".5"/><path d="m4.5 67a2 2 0 0 1 -2 2 2 2 0 0 1 -2 -2 2 2 0 0 1 2 -2 2 2 0 0 1 2 2zm89-29.6a2 2 0 0 1 -2 2 2 2 0 0 1 -2 -2 2 2 0 0 1 2 -2 2 2 0 0 1 2 2zm-12.72-11.7a2 2 0 0 1 -2 2 2 2 0 0 1 -2 -2 2 2 0 0 1 2 -2 2 2 0 0 1 2 2zm-12.72 2.4a2 2 0 0 1 -2 2 2 2 0 0 1 -2 -2 2 2 0 0 1 2 -2 2 2 0 0 1 2 2zm-12.72 6.1a2 2 0 0 1 -2 2 2 2 0 0 1 -2 -2 2 2 0 0 1 2 -2 2 2 0 0 1 2 2zm-12.72-5.4a2 2 0 0 1 -2 2 2 2 0 0 1 -2 -2 2 2 0 0 1 2 -2 2 2 0 0 1 2 2zm-12.72-17.8a2 2 0 0 1 -2 2 2 2 0 0 1 -2 -2 2 2 0 0 1 2 -2 2 2 0 0 1 2 2zm-12.72 12.7a2 2 0 0 1 -2 2 2 2 0 0 1 -2 -2 2 2 0 0 1 2 -2 2 2 0 0 1 2 2m152.7 62.3a2 2 0 0 1 -2 2 2 2 0 0 1 -2 -2 2 2 0 0 1 2 -2 2 2 0 0 1 2 2zm-12.72 28.9a2 2 0 0 1 -2 2 2 2 0 0 1 -2 -2 2 2 0 0 1 2 -2 2 2 0 0 1 2 2zm-12.72 14.4a2 2 0 0 1 -2 2 2 2 0 0 1 -2 -2 2 2 0 0 1 2 -2 2 2 0 0 1 2 2zm-12.72-6.4a2 2 0 0 1 -2 2 2 2 0 0 1 -2 -2 2 2 0 0 1 2 -2 2 2 0 0 1 2 2zm-12.72-25.9a2 2 0 0 1 -2 2 2 2 0 0 1 -2 -2 2 2 0 0 1 2 -2 2 2 0 0 1 2 2zm-12.72-34.3a2 2 0 0 1 -2 2 2 2 0 0 1 -2 -2 2 2 0 0 1 2 -2 2 2 0 0 1 2 2z" fill="#4a7ebb"/><g style="font-family:'Times New Roman';-inkscape-font-specification:'Times New Roman'" text-anchor="middle" font-size="8px"><text><tspan x="15" y="76" font-size="8px">1</tspan><tspan x="40" y="76">i</tspan><tspan x="2" y="76">0</tspan><tspan x="53" y="76">4</tspan><tspan x="66" y="76">5</tspan><tspan x="168" y="63">13</tspan><tspan x="155" y="63">12</tspan><tspan x="142" y="63">11</tspan><tspan x="129" y="63">10</tspan><tspan x="117" y="63">9</tspan><tspan x="79" y="76">6</tspan><tspan x="91" y="76">7</tspan><tspan x="104" y="76">8</tspan><tspan x="28" y="76">...</tspan></text>
<text fill="#4a7ebb" font-size="10px"><tspan x="42" y="24" font-style="italic">S<tspan baseline-shift="sub" font-size="8px">i</tspan></tspan></text>
<text font-size="10px"><tspan x="69" y="22" fill="#008000" font-style="italic">S(t)</tspan></text>
<text font-size="10px" font-style="italic" ><tspan x="186" y="64" >t</tspan></text></g></g></svg>
